<?xml version="1.0" encoding="UTF-8"?>
<svg width="400" height="120" viewBox="0 0 400 120" xmlns="http://www.w3.org/2000/svg">
  <defs>
    <!-- Gradient for the main text -->
    <linearGradient id="textGradient" x1="0%" y1="0%" x2="100%" y2="0%">
      <stop offset="0%" style="stop-color:#4F46E5;stop-opacity:1" />
      <stop offset="50%" style="stop-color:#7C3AED;stop-opacity:1" />
      <stop offset="100%" style="stop-color:#DB2777;stop-opacity:1" />
    </linearGradient>

    <!-- Gradient for the iron/metal accent -->
    <linearGradient id="metalGradient" x1="0%" y1="0%" x2="100%" y2="100%">
      <stop offset="0%" style="stop-color:#71717A;stop-opacity:1" />
      <stop offset="50%" style="stop-color:#A1A1AA;stop-opacity:1" />
      <stop offset="100%" style="stop-color:#52525B;stop-opacity:1" />
    </linearGradient>

    <!-- Glow effect for nodes -->
    <filter id="glow">
      <feGaussianBlur stdDeviation="3" result="coloredBlur"/>
      <feMerge>
        <feMergeNode in="coloredBlur"/>
        <feMergeNode in="SourceGraphic"/>
      </feMerge>
    </filter>
  </defs>

  <!-- Background (transparent) -->
  <rect width="400" height="120" fill="none"/>

  <!-- Distributed network nodes and connections -->
  <g opacity="0.8">
    <!-- Connection lines -->
    <line x1="30" y1="30" x2="80" y2="50" stroke="#4F46E5" stroke-width="2" opacity="0.6"/>
    <line x1="80" y1="50" x2="130" y2="35" stroke="#4F46E5" stroke-width="2" opacity="0.6"/>
    <line x1="30" y1="30" x2="130" y2="35" stroke="#4F46E5" stroke-width="2" opacity="0.4"/>
    <line x1="80" y1="50" x2="100" y2="85" stroke="#7C3AED" stroke-width="2" opacity="0.6"/>
    <line x1="130" y1="35" x2="100" y2="85" stroke="#7C3AED" stroke-width="2" opacity="0.4"/>

    <!-- Network nodes -->
    <circle cx="30" cy="30" r="6" fill="#4F46E5" filter="url(#glow)"/>
    <circle cx="80" cy="50" r="8" fill="#7C3AED" filter="url(#glow)"/>
    <circle cx="130" cy="35" r="6" fill="#4F46E5" filter="url(#glow)"/>
    <circle cx="100" cy="85" r="7" fill="#DB2777" filter="url(#glow)"/>
  </g>

  <!-- Iron/Metal geometric accent -->
  <g transform="translate(340, 20)">
    <polygon points="0,0 30,0 35,15 25,30 5,30 0,15" fill="url(#metalGradient)" opacity="0.7"/>
    <polygon points="5,35 25,35 30,50 20,65 0,65 -5,50" fill="url(#metalGradient)" opacity="0.5"/>
  </g>

  <!-- Main title -->
  <text x="160" y="45" font-family="'SF Pro Display', 'Helvetica Neue', Arial, sans-serif"
        font-size="36" font-weight="700" fill="url(#textGradient)">
    Ferrium
  </text>

  <!-- Subtitle with darker color for better contrast -->
  <text x="160" y="70" font-family="'SF Pro Display', 'Helvetica Neue', Arial, sans-serif"
        font-size="14" font-weight="400" fill="#1E293B">
    Distributed KV Storage System
  </text>

  <!-- Tech accent line -->
  <rect x="160" y="80" width="150" height="2" fill="url(#textGradient)" opacity="0.6"/>

  <!-- Version badge style element -->
  <g transform="translate(160, 90)">
    <rect x="0" y="0" width="60" height="18" rx="9" fill="#1F2937" opacity="0.1"/>
    <text x="30" y="12" font-family="'SF Mono', 'Monaco', 'Cascadia Code', monospace"
          font-size="10" font-weight="500" fill="#4B5563" text-anchor="middle">
      Rust + Raft
    </text>
  </g>
</svg>
